<svg id="visual" viewBox="0 0 960 540" width="960" height="540" xmlns="http://www.w3.org/2000/svg" xmlns:xlink="http://www.w3.org/1999/xlink" version="1.1"><rect width="960" height="540" fill="#001829"></rect><g><g transform="translate(631 23)"><path d="M0 -42.1L36.4 -21L36.4 21L0 42.1L-36.4 21L-36.4 -21Z" fill="#f7bd0f"></path></g><g transform="translate(6 355)"><path d="M0 -40L34.6 -20L34.6 20L0 40L-34.6 20L-34.6 -20Z" fill="#f7bd0f"></path></g><g transform="translate(936 457)"><path d="M0 -35L30.3 -17.5L30.3 17.5L0 35L-30.3 17.5L-30.3 -17.5Z" fill="#f7bd0f"></path></g><g transform="translate(412 87)"><path d="M0 -41L35.5 -20.5L35.5 20.5L0 41L-35.5 20.5L-35.5 -20.5Z" fill="#f7bd0f"></path></g><g transform="translate(540 34)"><path d="M0 -34L29.4 -17L29.4 17L0 34L-29.4 17L-29.4 -17Z" fill="#f7bd0f"></path></g><g transform="translate(800 490)"><path d="M0 -40L34.6 -20L34.6 20L0 40L-34.6 20L-34.6 -20Z" fill="#f7bd0f"></path></g><g transform="translate(830 101)"><path d="M0 -34L29.4 -17L29.4 17L0 34L-29.4 17L-29.4 -17Z" fill="#f7bd0f"></path></g><g transform="translate(860 308)"><path d="M0 -37L32 -18.5L32 18.5L0 37L-32 18.5L-32 -18.5Z" fill="#f7bd0f"></path></g><g transform="translate(106 328)"><path d="M0 -34L29.4 -17L29.4 17L0 34L-29.4 17L-29.4 -17Z" fill="#f7bd0f"></path></g><g transform="translate(738 250)"><path d="M0 -41L35.5 -20.5L35.5 20.5L0 41L-35.5 20.5L-35.5 -20.5Z" fill="#f7bd0f"></path></g><g transform="translate(783 394)"><path d="M0 -34L29.4 -17L29.4 17L0 34L-29.4 17L-29.4 -17Z" fill="#f7bd0f"></path></g><g transform="translate(47 255)"><path d="M0 -40L34.6 -20L34.6 20L0 40L-34.6 20L-34.6 -20Z" fill="#f7bd0f"></path></g><g transform="translate(380 221)"><path d="M0 -40L34.6 -20L34.6 20L0 40L-34.6 20L-34.6 -20Z" fill="#f7bd0f"></path></g><g transform="translate(230 143)"><path d="M0 -41L35.5 -20.5L35.5 20.5L0 41L-35.5 20.5L-35.5 -20.5Z" fill="#f7bd0f"></path></g></g></svg>